<?xml version="1.0" encoding="UTF-8" standalone="no"?> <svg xmlns="http://www.w3.org/2000/svg" xmlns:xlink="http://www.w3.org/1999/xlink" viewBox="0 0 64 64"><defs><style>.cls-1{fill:url(#linear-gradient);}</style><linearGradient id="linear-gradient" x1="3" y1="32" x2="61" y2="32" gradientUnits="userSpaceOnUse"><stop offset="0" stop-color="#17a6d7"/><stop offset="1" stop-color="#9d31fe"/></linearGradient></defs><g id="Layer_47" data-name="Layer 47"><path class="cls-1" d="M60,8.9H4a1,1,0,0,0-1,1v4.51a1,1,0,0,0,1,1H6.27V49a1,1,0,0,0,1,1H31V53.1H28.49a1,1,0,0,0,0,2h7a1,1,0,0,0,0-2H33V50H56.73a1,1,0,0,0,1-1V15.41H60a1,1,0,0,0,1-1V9.9A1,1,0,0,0,60,8.9ZM55.73,48H8.27V15.41H55.73ZM59,13.41H5V10.9H59Z"/></g></svg>